# xmcd
# Copyright (C) 1995-1998 Ti Kan
#
# Track frame offsets:
#       150
#       31579
#       47666
#
# Disc length: 835 seconds
#
# Revision: 0
# Processed by: cddbd v1.5.2PL0 Copyright (c) Steve Scherf et al.
# Submitted via: CD-Import v1.0
#
DISCID=17034103
DTITLE=Guts Pie Earshot - Revolt Against
DYEAR=07
DGENRE=
TTITLE0=Revolt Against
TTITLE1=Manu
TTITLE2=Karawane
EXTD=
EXTT0=
EXTT1=
EXTT2=
PLAYORDER=
